<svg version="1.2" xmlns="http://www.w3.org/2000/svg" viewBox="0 0 600 600" width="600" height="600">
	<title>Portrait_Placeholder</title>
	<style>
		.s0 { fill: #e0e1e3 } 
		.s1 { fill: #b5b6b9 } 
	</style>
	<g id="Path 0">
		<path id="Path 0" class="s0" d="m0 300v300h94.5c1.4-80 1.6-83.3 4-95 1.4-6.9 4.2-17.2 6.1-23 2-5.8 6.2-15.9 9.4-22.5 3.2-6.6 8.9-16.3 12.6-21.5 3.7-5.2 12.2-14.9 18.8-21.5 6.7-6.6 15.7-14.6 20.1-17.6 4.4-3.1 10.7-7.2 14-9.2 3.3-1.9 11.2-5.8 17.5-8.5 6.3-2.7 15.9-6.4 21.3-8.1l9.7-3.1c15.9 6.1 24.6 8.9 29.5 10.3 4.9 1.4 12.4 3.1 16.5 3.9 4.5 0.8 14.4 1.3 24.5 1.2 9.4 0 20.4-0.6 24.5-1.2 4.1-0.7 12.2-2.4 18-3.8 5.8-1.4 14.6-3.9 19.5-5.5 4.9-1.7 10.4-3 12-3.1 1.6 0 6.6 0.9 11 2 4.4 1.1 11.8 3.8 16.5 5.9 4.7 2.2 10.6 4.8 13.2 5.9 2.7 1 4.8 2.2 4.8 2.6 0 0.5 0.7 0.8 1.5 0.8 0.8 0 1.5 0.4 1.5 1 0 0.6 0.6 1 1.2 1 0.7 0 5.8 3 11.3 6.7 5.8 4 14.4 11.2 20.6 17.3 5.8 5.8 13.3 14.1 16.6 18.5 3.2 4.4 7.6 10.7 9.5 14 2 3.3 5.5 10.1 7.8 15 2.3 4.9 5.8 13.7 7.7 19.5 2 5.8 4.7 15.2 6.1 21 2.5 10.3 2.5 11.5 2.9 53.8l0.3 43.2h95v-600h-600z"/>
		<path id="Path 1" class="s1" d="m216 373.9c-6.3 2.1-15.8 5.8-21 8.1-5.2 2.3-12.2 5.8-15.5 7.8-3.3 1.9-9.6 6-14 9.1-4.4 3-13.4 11-20.1 17.6-6.6 6.6-15.1 16.3-18.8 21.5-3.7 5.2-9.4 14.9-12.6 21.5-3.2 6.6-7.4 16.7-9.4 22.5-1.9 5.8-4.7 16.1-6.1 23-2.4 11.7-2.6 15-3.3 53.8l-0.7 41.2h410.5c-0.7-85.5-0.7-86.7-3.2-97-1.4-5.8-4.1-15.2-6.1-21-1.9-5.8-5.4-14.5-7.7-19.5-2.3-4.9-5.8-11.7-7.8-15-1.9-3.3-6.3-9.6-9.5-14-3.3-4.4-10.8-12.7-16.6-18.5-6.2-6.1-14.8-13.3-20.6-17.3-5.5-3.7-10.6-6.7-11.2-6.7-0.7 0-1.3-0.4-1.3-1 0-0.5-0.7-1-1.5-1-0.8 0-1.5-0.3-1.5-0.7 0-0.5-2.1-1.7-4.8-2.7-2.6-1.1-8.5-3.7-13.2-5.9-4.7-2.1-12.1-4.8-16.5-5.9-4.4-1.1-9.4-2-11-2-1.6 0.1-7.1 1.4-12 3.1-4.9 1.6-13.7 4.1-19.5 5.5-5.8 1.4-13.9 3.1-18 3.8-4.1 0.6-15.1 1.2-24.5 1.2-10.1 0.1-20-0.4-24.5-1.2-4.1-0.8-11.6-2.5-16.5-3.9-4.9-1.4-13.7-4.3-19.5-6.4-5.8-2.2-10.5-3.9-10.5-3.9 0 0.1-5.2 1.8-11.5 3.9zm54.5-282.5c-5.5 1.3-15.2 4.4-21.5 7-6.3 2.6-14.7 6.5-18.5 8.8-3.8 2.3-11.3 7.6-16.5 11.8-5.2 4.2-12.7 11.4-16.6 16-3.9 4.7-9.3 11.9-12 16-2.6 4.1-6.7 11.7-9.1 16.7-2.4 5.1-5.4 13.2-6.9 18-1.4 4.9-3.2 13.1-3.9 18.3-0.8 5.2-1.5 14-1.5 19.5 0 5.5 0.5 13.8 1 18.5 0.6 4.7 2.2 12.8 3.6 18 1.4 5.2 3.8 12.6 5.4 16.5 1.6 3.9 5.3 11.1 8.1 16 2.8 4.9 8 12.6 11.4 17 3.4 4.4 8.9 10.5 12.1 13.5 3.3 3 9.8 8.3 14.4 11.7 4.7 3.3 12.3 8.1 17 10.6 4.7 2.5 13 6.1 18.5 8 5.5 1.9 14.3 4.2 19.5 5.2 6.8 1.3 14.1 1.8 25.5 1.8 8.8 0 18.9-0.6 22.5-1.2 3.6-0.7 10.8-2.5 16-4 5.2-1.5 13.6-4.7 18.5-7 4.9-2.3 11.3-5.6 14-7.4 2.8-1.7 9.1-6.3 14-10.3 4.9-4 9.7-8 10.5-9.1 0.9-1 5-5.9 9.1-10.8 4.2-4.9 10.4-13.8 13.8-19.8 3.3-5.9 6.1-11 6.1-11.5 0-0.4 1.1-3.6 2.6-7.2 1.4-3.6 3.7-10.6 5.1-15.5 2.1-7.6 2.6-11.9 3-27 0.4-14 0.1-20.1-1.1-27.5-0.9-5.2-3.2-14-5-19.5-1.9-5.5-5-13.4-7.1-17.5-2.1-4.1-6.1-11.1-9-15.5-2.9-4.4-8.2-11.5-11.9-15.8-3.6-4.2-10.3-10.6-14.8-14.2-4.6-3.6-11.9-8.7-16.3-11.3-4.4-2.7-12.5-6.8-18-9.2-5.5-2.3-14.3-5.4-19.5-6.8-8.3-2.1-12.2-2.5-31-2.8-19.9-0.4-22.3-0.2-31.5 2z"/>
	</g>
</svg>